<svg width="18" height="19" viewBox="0 0 18 19" fill="none" xmlns="http://www.w3.org/2000/svg">
<path d="M9.21479 3.98175C9.50768 3.68886 9.98255 3.68886 10.2754 3.98175L14.7754 8.48176C14.9161 8.62241 14.9951 8.81317 14.9951 9.01209C14.9951 9.211 14.9161 9.40176 14.7754 9.54242L10.2754 14.0424C9.98255 14.3353 9.50768 14.3353 9.21479 14.0424C8.92189 13.7495 8.92189 13.2746 9.21479 12.9818L12.4345 9.76209L3.74512 9.76209C3.3309 9.76209 2.99512 9.4263 2.99512 9.01209C2.99512 8.59787 3.3309 8.26209 3.74512 8.26209H12.4345L9.21479 5.04242C8.92189 4.74952 8.92189 4.27465 9.21479 3.98175Z" fill="#506368"/>
</svg>
