<svg width="18" height="18" viewBox="0 0 18 18" fill="none" xmlns="http://www.w3.org/2000/svg">
<path d="M3.96967 8.78033C3.67678 8.48744 3.67678 8.01256 3.96967 7.71967L8.46967 3.21967C8.61032 3.07902 8.80109 3 9 3C9.19891 3 9.38968 3.07902 9.53033 3.21967L14.0303 7.71967C14.3232 8.01256 14.3232 8.48744 14.0303 8.78033C13.7374 9.07322 13.2626 9.07322 12.9697 8.78033L9.75 5.56066L9.75 14.25C9.75 14.6642 9.41421 15 9 15C8.58579 15 8.25 14.6642 8.25 14.25L8.25 5.56066L5.03033 8.78033C4.73744 9.07322 4.26256 9.07322 3.96967 8.78033Z" fill="#506368"/>
</svg>
