<svg width="17" height="17" viewBox="0 0 17 17" fill="none" xmlns="http://www.w3.org/2000/svg">
<path d="M8.37488 3.55388C8.74307 3.55388 9.04154 3.85236 9.04154 4.22055V13.5539C9.04154 13.9221 8.74307 14.2205 8.37488 14.2205C8.00669 14.2205 7.70821 13.9221 7.70821 13.5539V4.22055C7.70821 3.85236 8.00669 3.55388 8.37488 3.55388ZM11.7082 6.22055C12.0764 6.22055 12.3749 6.51902 12.3749 6.88721V13.5539C12.3749 13.9221 12.0764 14.2205 11.7082 14.2205C11.34 14.2205 11.0415 13.9221 11.0415 13.5539V6.88721C11.0415 6.51902 11.34 6.22055 11.7082 6.22055ZM5.04154 8.88721C5.40973 8.88721 5.70821 9.18569 5.70821 9.55388V13.5539C5.70821 13.9221 5.40973 14.2205 5.04154 14.2205C4.67335 14.2205 4.37488 13.9221 4.37488 13.5539V9.55388C4.37488 9.18569 4.67335 8.88721 5.04154 8.88721Z" fill="white"/>
</svg>
