<svg width="112" height="46" viewBox="0 0 112 46" fill="none" xmlns="http://www.w3.org/2000/svg">
<g clip-path="url(#clip0_208_294)">
<path d="M103.231 31.3259C105.64 30.0861 107.544 28.4112 108.94 26.3069C110.539 23.8963 111.337 21.0208 111.337 17.684C111.337 14.3473 110.539 11.4513 108.94 8.99773C107.342 6.54607 105.078 4.66018 102.15 3.34192C99.2213 2.02366 95.7484 1.36453 91.7335 1.36453H72.6816C72.3215 1.36453 72.1656 1.822 72.4514 2.0442C78.6604 6.88777 82.6586 14.4649 82.6586 22.9813C82.6586 31.4977 78.6399 39.1141 72.4013 43.9558C72.1154 44.178 72.2714 44.6355 72.6315 44.6355H85.5264V33.7552H89.4764L96.7712 44.6355H111.498L103.229 31.3259H103.231ZM95.2677 21.3923C94.3043 22.2998 92.8193 22.7517 90.8128 22.7517H85.5282V12.6127H90.8128C92.8193 12.6127 94.3043 13.0664 95.2677 13.9739C96.2292 14.8813 96.7118 16.1174 96.7118 17.6822C96.7118 19.2469 96.2292 20.4849 95.2677 21.3905V21.3923Z" fill="#1D1E2C"/>
<path d="M56.5142 34.1062C62.6415 34.1062 67.6086 29.1095 67.6086 22.9458C67.6086 16.7821 62.6415 11.7855 56.5142 11.7855C50.3869 11.7855 45.4197 16.7821 45.4197 22.9458C45.4197 29.1095 50.3869 34.1062 56.5142 34.1062Z" fill="#01FDF6"/>
<path d="M31.4556 31.6359C31.3665 31.3801 31.0491 31.2998 30.8468 31.479C30.1173 32.1232 29.3006 32.6367 28.3985 33.0195C27.2365 33.5106 25.9836 33.7571 24.6397 33.7571C23.2958 33.7571 22.0429 33.5106 20.8809 33.0195C19.7208 32.5266 18.7018 31.8207 17.8257 30.8983C16.9495 29.9759 16.2665 28.85 15.7783 27.5168C15.2901 26.1855 15.0451 24.6786 15.0451 22.9981C15.0451 21.3176 15.2901 19.8127 15.7783 18.4795C16.2665 17.1481 16.9495 16.0203 17.8257 15.0979C18.7018 14.1755 19.7208 13.4697 20.8809 12.9768C22.0429 12.4857 23.294 12.2392 24.6397 12.2392C25.9855 12.2392 27.2365 12.4857 28.3985 12.9768C29.2969 13.3577 30.1099 13.8693 30.8375 14.5079C31.0417 14.6871 31.3591 14.6068 31.4464 14.351C32.7568 10.5251 34.9119 7.09689 37.6906 4.29232C37.8669 4.11307 37.8224 3.81618 37.6033 3.69295C36.562 3.10851 35.4594 2.59689 34.2956 2.15809C31.361 1.0527 28.1423 0.5 24.6397 0.5C21.1371 0.5 17.9686 1.0527 15.0154 2.15996C12.0603 3.26722 9.50436 4.83382 7.34562 6.86349C5.18502 8.89129 3.50517 11.2701 2.30421 13.9944C1.1014 16.7205 0.5 19.7212 0.5 23C0.5 26.2788 1.1014 29.2309 2.30236 31.9757C3.50331 34.7224 5.18502 37.1087 7.34376 39.1384C9.50251 41.168 12.0585 42.7346 15.0135 43.8419C17.9667 44.9492 21.1761 45.5019 24.6379 45.5019C28.0996 45.5019 31.361 44.9492 34.2937 43.8419C35.413 43.4199 36.4748 42.9307 37.4808 42.3743C37.7741 42.2118 37.8298 41.8141 37.5959 41.5751C34.8692 38.7948 32.7513 35.4095 31.4556 31.6396V31.6359Z" fill="#1D1E2C"/>
</g>
<defs>
<clipPath id="clip0_208_294">
<rect width="111" height="45" fill="white" transform="translate(0.5 0.5)"/>
</clipPath>
</defs>
</svg>
