<svg width="16" height="17" viewBox="0 0 16 17" fill="none" xmlns="http://www.w3.org/2000/svg">
<path d="M4.66683 3.33346C4.66683 2.59708 5.26378 2.00012 6.00016 2.00012H10.0002C10.7365 2.00012 11.3335 2.59708 11.3335 3.33346V4.66679H12.6599C12.6641 4.66675 12.6682 4.66675 12.6723 4.66679H14.0002C14.3684 4.66679 14.6668 4.96527 14.6668 5.33346C14.6668 5.70164 14.3684 6.00012 14.0002 6.00012H13.2876L12.7094 14.0951C12.6595 14.7929 12.0789 15.3335 11.3794 15.3335H4.62091C3.92139 15.3335 3.3408 14.7929 3.29096 14.0951L2.71275 6.00012H2.00016C1.63197 6.00012 1.3335 5.70164 1.3335 5.33346C1.3335 4.96527 1.63197 4.66679 2.00016 4.66679H3.32799C3.33213 4.66675 3.33626 4.66675 3.34038 4.66679H4.66683V3.33346ZM6.00016 4.66679H10.0002V3.33346H6.00016V4.66679ZM4.04948 6.00012L4.62091 14.0001H11.3794L11.9508 6.00012H4.04948ZM6.66683 7.33346C7.03502 7.33346 7.3335 7.63193 7.3335 8.00012V12.0001C7.3335 12.3683 7.03502 12.6668 6.66683 12.6668C6.29864 12.6668 6.00016 12.3683 6.00016 12.0001V8.00012C6.00016 7.63193 6.29864 7.33346 6.66683 7.33346ZM9.3335 7.33346C9.70169 7.33346 10.0002 7.63193 10.0002 8.00012V12.0001C10.0002 12.3683 9.70169 12.6668 9.3335 12.6668C8.96531 12.6668 8.66683 12.3683 8.66683 12.0001V8.00012C8.66683 7.63193 8.96531 7.33346 9.3335 7.33346Z" fill="#404265"/>
</svg>
