<svg width="16" height="16" viewBox="0 0 16 16" fill="none" xmlns="http://www.w3.org/2000/svg">
<path d="M11.3334 8.93334V10.9333C11.3334 13.6 10.2667 14.6667 7.60004 14.6667H5.06671C2.40004 14.6667 1.33337 13.6 1.33337 10.9333V8.40001C1.33337 5.73334 2.40004 4.66667 5.06671 4.66667H7.06671" stroke="white" stroke-width="1.5" stroke-linecap="round" stroke-linejoin="round"/>
<path d="M11.3334 8.93334H9.20004C7.60004 8.93334 7.06671 8.40001 7.06671 6.80001V4.66667L11.3334 8.93334Z" stroke="white" stroke-width="1.5" stroke-linecap="round" stroke-linejoin="round"/>
<path d="M7.7334 1.33333H10.4001" stroke="white" stroke-width="1.5" stroke-linecap="round" stroke-linejoin="round"/>
<path d="M4.66675 3.33333C4.66675 2.22666 5.56008 1.33333 6.66675 1.33333H8.41341" stroke="white" stroke-width="1.5" stroke-linecap="round" stroke-linejoin="round"/>
<path d="M14.6667 5.33333V9.45999C14.6667 10.4933 13.8267 11.3333 12.7934 11.3333" stroke="white" stroke-width="1.5" stroke-linecap="round" stroke-linejoin="round"/>
<path d="M14.6667 5.33333H12.6667C11.1667 5.33333 10.6667 4.83333 10.6667 3.33333V1.33333L14.6667 5.33333Z" stroke="white" stroke-width="1.5" stroke-linecap="round" stroke-linejoin="round"/>
</svg>
