<svg width="16" height="17" viewBox="0 0 16 17" fill="none" xmlns="http://www.w3.org/2000/svg">
<path d="M10.8619 2.19538C11.1223 1.93503 11.5444 1.93503 11.8047 2.19538L14.4714 4.86205C14.7318 5.1224 14.7318 5.54451 14.4714 5.80486L5.80474 14.4715C5.67971 14.5966 5.51014 14.6668 5.33333 14.6668H2.66667C2.29848 14.6668 2 14.3683 2 14.0001V11.3335C2 11.1566 2.07024 10.9871 2.19526 10.8621L8.86179 4.19552L10.8619 2.19538ZM9.33333 5.6096L3.33333 11.6096V13.3335H5.05719L11.0572 7.33346L9.33333 5.6096ZM12 6.39065L13.0572 5.33346L11.3333 3.6096L10.2761 4.66679L12 6.39065Z" fill="#404265"/>
</svg>
