<svg width="17" height="17" viewBox="0 0 17 17" fill="none" xmlns="http://www.w3.org/2000/svg">
<path d="M10.5625 8.01208C10.5625 9.11665 9.66711 10.0121 8.56254 10.0121C7.45797 10.0121 6.56254 9.11665 6.56254 8.01208C6.56254 6.90751 7.45797 6.01208 8.56254 6.01208C9.66711 6.01208 10.5625 6.90751 10.5625 8.01208Z" fill="#0C3944"/>
<path d="M15.1588 7.71394C13.72 4.83631 11.1646 3.34541 8.56254 3.34541C5.96046 3.34541 3.40507 4.83631 1.96626 7.71394C1.87241 7.90162 1.87241 8.12254 1.96626 8.31022C3.40507 11.1878 5.96046 12.6787 8.56254 12.6787C11.1646 12.6787 13.72 11.1878 15.1588 8.31022C15.2527 8.12254 15.2527 7.90162 15.1588 7.71394ZM8.56254 11.3454C6.58335 11.3454 4.56124 10.2649 3.31565 8.01208C4.56124 5.75927 6.58335 4.67875 8.56254 4.67875C10.5417 4.67875 12.5638 5.75927 13.8094 8.01208C12.5638 10.2649 10.5417 11.3454 8.56254 11.3454Z" fill="#0C3944"/>
</svg>
