<svg width="25" height="25" viewBox="0 0 25 25" fill="none" xmlns="http://www.w3.org/2000/svg">
<path fill-rule="evenodd" clip-rule="evenodd" d="M16.4995 2.21997C16.9137 2.21997 17.2495 2.55576 17.2495 2.96997L17.2495 5.96997C17.2495 6.38418 16.9137 6.71997 16.4995 6.71997C16.0853 6.71997 15.7495 6.38418 15.7495 5.96997L15.7495 2.96997C15.7495 2.55576 16.0853 2.21997 16.4995 2.21997Z" fill="#CA853A"/>
<path fill-rule="evenodd" clip-rule="evenodd" d="M8.49951 2.21997C8.91373 2.21997 9.24951 2.55576 9.24951 2.96997L9.24951 5.96997C9.24951 6.38418 8.91373 6.71997 8.49951 6.71997C8.0853 6.71997 7.74951 6.38418 7.74951 5.96997L7.74951 2.96997C7.74951 2.55576 8.0853 2.21997 8.49951 2.21997Z" fill="#CA853A"/>
<path opacity="0.4" d="M17.5 4.46997H7.5C5.29086 4.46997 3.5 6.26083 3.5 8.46997V18.97C3.5 21.1791 5.29086 22.97 7.5 22.97H17.5C19.7091 22.97 21.5 21.1791 21.5 18.97V8.46997C21.5 6.26083 19.7091 4.46997 17.5 4.46997Z" fill="#CA853A"/>
<path fill-rule="evenodd" clip-rule="evenodd" d="M7.75 9.96997C7.75 9.55576 8.08579 9.21997 8.5 9.21997H12.5C12.9142 9.21997 13.25 9.55576 13.25 9.96997C13.25 10.3842 12.9142 10.72 12.5 10.72H8.5C8.08579 10.72 7.75 10.3842 7.75 9.96997Z" fill="#CA853A"/>
<path fill-rule="evenodd" clip-rule="evenodd" d="M7.75 13.97C7.75 13.5558 8.08579 13.22 8.5 13.22H16.5C16.9142 13.22 17.25 13.5558 17.25 13.97C17.25 14.3842 16.9142 14.72 16.5 14.72H8.5C8.08579 14.72 7.75 14.3842 7.75 13.97Z" fill="#CA853A"/>
<path fill-rule="evenodd" clip-rule="evenodd" d="M7.75 17.97C7.75 17.5558 8.08579 17.22 8.5 17.22H16.5C16.9142 17.22 17.25 17.5558 17.25 17.97C17.25 18.3842 16.9142 18.72 16.5 18.72H8.5C8.08579 18.72 7.75 18.3842 7.75 17.97Z" fill="#CA853A"/>
</svg>
