<svg width="16" height="16" viewBox="0 0 16 16" fill="none" xmlns="http://www.w3.org/2000/svg">
<path fill-rule="evenodd" clip-rule="evenodd" d="M8.50016 1.83337C8.50016 1.55723 8.2763 1.33337 8.00016 1.33337C7.72402 1.33337 7.50016 1.55723 7.50016 1.83337V3.16671C7.50016 3.44285 7.72402 3.66671 8.00016 3.66671C8.2763 3.66671 8.50016 3.44285 8.50016 3.16671V1.83337ZM2.35372 3.47982C2.15845 3.28456 1.84187 3.28456 1.64661 3.47982C1.45135 3.67508 1.45135 3.99167 1.64661 4.18693L2.64661 5.18693C2.84187 5.38219 3.15845 5.38219 3.35372 5.18693C3.54898 4.99167 3.54898 4.67508 3.35372 4.47982L2.35372 3.47982ZM14.3537 4.18693C14.549 3.99167 14.549 3.67508 14.3537 3.47982C14.1585 3.28456 13.8419 3.28456 13.6466 3.47982L12.6466 4.47982C12.4513 4.67508 12.4513 4.99167 12.6466 5.18693C12.8419 5.38219 13.1585 5.38219 13.3537 5.18693L14.3537 4.18693ZM13.9183 8.21412C14.9163 9.16951 14.9163 10.8306 13.9183 11.786C12.5424 13.103 10.403 14.6667 8.00016 14.6667C5.59736 14.6667 3.45791 13.103 2.08203 11.786C1.08398 10.8306 1.08398 9.16951 2.08203 8.21412C3.45791 6.89705 5.59736 5.33337 8.00016 5.33337C10.403 5.33337 12.5424 6.89705 13.9183 8.21412ZM10.0001 10C10.0001 11.1046 9.10471 12 8.00014 12C6.89557 12 6.00014 11.1046 6.00014 10C6.00014 8.89547 6.89557 8.00004 8.00014 8.00004C9.10471 8.00004 10.0001 8.89547 10.0001 10Z" fill="#C4D7DB"/>
</svg>
