<svg width="25" height="25" viewBox="0 0 25 25" fill="none" xmlns="http://www.w3.org/2000/svg">
<path d="M22.3055 10.2915H21.5V10.25H12.5V14.25H18.1515C17.327 16.5785 15.1115 18.25 12.5 18.25C9.1865 18.25 6.5 15.5635 6.5 12.25C6.5 8.9365 9.1865 6.25 12.5 6.25C14.0295 6.25 15.421 6.827 16.4805 7.7695L19.309 4.941C17.523 3.2765 15.134 2.25 12.5 2.25C6.9775 2.25 2.5 6.7275 2.5 12.25C2.5 17.7725 6.9775 22.25 12.5 22.25C18.0225 22.25 22.5 17.7725 22.5 12.25C22.5 11.5795 22.431 10.925 22.3055 10.2915Z" fill="#FFC107"/>
<path d="M3.65283 7.5955L6.93833 10.005C7.82733 7.804 9.98033 6.25 12.4998 6.25C14.0293 6.25 15.4208 6.827 16.4803 7.7695L19.3088 4.941C17.5228 3.2765 15.1338 2.25 12.4998 2.25C8.65883 2.25 5.32783 4.4185 3.65283 7.5955Z" fill="#FF3D00"/>
<path d="M12.5002 22.25C15.0832 22.25 17.4302 21.2615 19.2047 19.654L16.1097 17.035C15.1057 17.7955 13.8577 18.25 12.5002 18.25C9.89916 18.25 7.69066 16.5915 6.85866 14.277L3.59766 16.7895C5.25266 20.028 8.61366 22.25 12.5002 22.25Z" fill="#4CAF50"/>
<path d="M22.3055 10.2915H21.5V10.25H12.5V14.25H18.1515C17.7555 15.3685 17.036 16.333 16.108 17.0355L16.1095 17.0345L19.2045 19.6535C18.9855 19.8525 22.5 17.25 22.5 12.25C22.5 11.5795 22.431 10.925 22.3055 10.2915Z" fill="#1976D2"/>
</svg>
