<svg width="21" height="25" viewBox="0 0 21 25" fill="none" xmlns="http://www.w3.org/2000/svg">
<path opacity="0.4" d="M19 0.970428H2C0.895431 0.970428 0 1.86586 0 2.97043V22.5983C0 23.6997 1.14741 24.4255 2.14262 23.9536L4.99841 22.5996C5.52812 22.3485 6.14136 22.3424 6.67597 22.5829L9.67927 23.9344C10.2012 24.1693 10.7988 24.1693 11.3207 23.9344L14.324 22.5829C14.8586 22.3424 15.4719 22.3485 16.0016 22.5996L18.8574 23.9536C19.8526 24.4255 21 23.6997 21 22.5983V2.97043C21 1.86586 20.1046 0.970428 19 0.970428Z" fill="#2886A3"/>
<path fill-rule="evenodd" clip-rule="evenodd" d="M4.95834 6.80376C4.95834 6.32051 5.35009 5.92876 5.83334 5.92876H10.5C10.9833 5.92876 11.375 6.32051 11.375 6.80376C11.375 7.28701 10.9833 7.67876 10.5 7.67876H5.83334C5.35009 7.67876 4.95834 7.28701 4.95834 6.80376ZM4.95834 11.4704C4.95834 10.9872 5.35009 10.5954 5.83334 10.5954H15.1667C15.6499 10.5954 16.0417 10.9872 16.0417 11.4704C16.0417 11.9537 15.6499 12.3454 15.1667 12.3454H5.83334C5.35009 12.3454 4.95834 11.9537 4.95834 11.4704ZM4.95834 16.1371C4.95834 15.6538 5.35009 15.2621 5.83334 15.2621H15.1667C15.6499 15.2621 16.0417 15.6538 16.0417 16.1371C16.0417 16.6203 15.6499 17.0121 15.1667 17.0121H5.83334C5.35009 17.0121 4.95834 16.6203 4.95834 16.1371Z" fill="#2886A3"/>
</svg>
