<svg width="16" height="16" viewBox="0 0 16 16" fill="none" xmlns="http://www.w3.org/2000/svg">
<path d="M7.99984 1.33337C5.0665 1.33337 2.6665 3.73337 2.6665 6.66671C2.6665 10.2667 7.33317 14.3334 7.53317 14.5334C7.6665 14.6 7.8665 14.6667 7.99984 14.6667C8.13317 14.6667 8.33317 14.6 8.4665 14.5334C8.6665 14.3334 13.3332 10.2667 13.3332 6.66671C13.3332 3.73337 10.9332 1.33337 7.99984 1.33337ZM7.99984 13.1334C6.59984 11.8 3.99984 8.93337 3.99984 6.66671C3.99984 4.46671 5.79984 2.66671 7.99984 2.66671C10.1998 2.66671 11.9998 4.46671 11.9998 6.66671C11.9998 8.86671 9.39984 11.8 7.99984 13.1334ZM7.99984 4.00004C6.53317 4.00004 5.33317 5.20004 5.33317 6.66671C5.33317 8.13337 6.53317 9.33337 7.99984 9.33337C9.4665 9.33337 10.6665 8.13337 10.6665 6.66671C10.6665 5.20004 9.4665 4.00004 7.99984 4.00004ZM7.99984 8.00004C7.2665 8.00004 6.6665 7.40004 6.6665 6.66671C6.6665 5.93337 7.2665 5.33337 7.99984 5.33337C8.73317 5.33337 9.33317 5.93337 9.33317 6.66671C9.33317 7.40004 8.73317 8.00004 7.99984 8.00004Z" fill="#878787"/>
</svg>
