<svg width="25" height="24" viewBox="0 0 25 24" fill="none" xmlns="http://www.w3.org/2000/svg">
<path d="M3.99994 20.5C4.82994 21.33 6.16994 21.33 6.99994 20.5L19.9999 7.5C20.8299 6.67 20.8299 5.33 19.9999 4.5C19.1699 3.67 17.8299 3.67 16.9999 4.5L3.99994 17.5C3.16994 18.33 3.16994 19.67 3.99994 20.5Z" stroke="white" stroke-width="1.5" stroke-linecap="round" stroke-linejoin="round"/>
<path d="M18.51 8.98999L15.51 5.98999" stroke="white" stroke-width="1.5" stroke-linecap="round" stroke-linejoin="round"/>
<path d="M9 2.44L10.5 2L10.06 3.5L10.5 5L9 4.56L7.5 5L7.94 3.5L7.5 2L9 2.44Z" stroke="white" stroke-linecap="round" stroke-linejoin="round"/>
<path d="M5 8.44L6.5 8L6.06 9.5L6.5 11L5 10.56L3.5 11L3.94 9.5L3.5 8L5 8.44Z" stroke="white" stroke-linecap="round" stroke-linejoin="round"/>
<path d="M20 13.44L21.5 13L21.06 14.5L21.5 16L20 15.56L18.5 16L18.94 14.5L18.5 13L20 13.44Z" stroke="white" stroke-linecap="round" stroke-linejoin="round"/>
</svg>
