<svg width="473" height="1024" viewBox="0 0 473 1024" fill="none" xmlns="http://www.w3.org/2000/svg">
<mask id="mask0_298_1154" style="mask-type:alpha" maskUnits="userSpaceOnUse" x="0" y="0" width="473" height="1024">
<rect width="473" height="1024" fill="#EBF7F7"/>
</mask>
<g mask="url(#mask0_298_1154)">
<path d="M139.495 437.275C156.695 436.835 170.715 432.205 181.545 423.365C192.385 414.555 199.585 402.425 203.155 387.015C206.725 371.605 208.625 345.245 208.855 307.935C209.075 270.635 209.745 246.075 210.865 234.225C212.885 215.465 216.615 200.385 222.085 188.995C227.555 177.605 234.315 168.505 242.355 161.695C250.405 154.875 260.665 149.685 273.185 146.115C281.675 143.885 295.525 142.765 314.735 142.765H333.495V195.365H323.105C299.875 195.365 284.465 199.555 276.875 207.925C269.275 216.305 265.475 235.015 265.475 264.045C265.475 322.575 264.255 359.545 261.795 374.945C257.775 398.845 250.905 417.275 241.195 430.235C231.475 443.195 216.235 454.685 195.455 464.745C220.025 475.015 237.845 490.715 248.905 511.815C259.965 532.925 265.485 567.495 265.485 615.515C265.485 659.065 265.935 684.975 266.825 693.245C268.605 708.435 273.135 719.045 280.395 725.085C287.655 731.115 301.895 734.135 323.115 734.135H333.505V786.735H314.745C292.845 786.735 276.995 784.945 267.165 781.375C252.865 776.235 241.035 767.915 231.655 756.415C222.275 744.905 216.185 730.325 213.395 712.695C210.595 695.045 209.085 666.125 208.875 625.915C208.655 585.705 206.755 557.905 203.175 542.485C199.605 527.075 192.405 514.895 181.565 505.955C170.735 497.025 156.715 492.335 139.515 491.885V437.275H139.495Z" fill="#01FDF6"/>
<circle cx="438.933" cy="583.75" r="383.433" stroke="#B4E1EC" stroke-opacity="0.78"/>
<circle cx="501.9" cy="646.717" r="320.467" stroke="#B4E1EC" stroke-opacity="0.78"/>
<circle cx="545.433" cy="855.049" r="238.067" stroke="#B4E1EC" stroke-opacity="0.78"/>
</g>
</svg>
