<svg width="17" height="16" viewBox="0 0 17 16" fill="none" xmlns="http://www.w3.org/2000/svg">
<path d="M11.8333 12.2867H9.16666L6.19999 14.26C5.75999 14.5533 5.16666 14.24 5.16666 13.7067V12.2867C3.16666 12.2867 1.83333 10.9534 1.83333 8.95337V4.95333C1.83333 2.95333 3.16666 1.62 5.16666 1.62H11.8333C13.8333 1.62 15.1667 2.95333 15.1667 4.95333V8.95337C15.1667 10.9534 13.8333 12.2867 11.8333 12.2867Z" stroke="#2886A3" stroke-width="1.5" stroke-miterlimit="10" stroke-linecap="round" stroke-linejoin="round"/>
<path d="M8.50001 7.57333V7.43336C8.50001 6.98003 8.78002 6.74002 9.06002 6.54668C9.33336 6.36002 9.60665 6.12002 9.60665 5.68002C9.60665 5.06669 9.11334 4.57333 8.50001 4.57333C7.88667 4.57333 7.39336 5.06669 7.39336 5.68002" stroke="#2886A3" stroke-width="1.5" stroke-linecap="round" stroke-linejoin="round"/>
<path d="M8.49701 9.16668H8.50301" stroke="#2886A3" stroke-width="1.5" stroke-linecap="round" stroke-linejoin="round"/>
</svg>
