<svg width="16" height="16" viewBox="0 0 16 16" fill="none" xmlns="http://www.w3.org/2000/svg">
<path d="M14.44 6.96L13.7867 9.74666C13.2267 12.1533 12.12 13.1267 10.04 12.9267C9.70666 12.9 9.34666 12.84 8.95999 12.7467L7.83999 12.48C5.05999 11.82 4.19999 10.4467 4.85333 7.66L5.50666 4.86666C5.63999 4.3 5.79999 3.80666 5.99999 3.4C6.77999 1.78666 8.10666 1.35333 10.3333 1.88L11.4467 2.14C14.24 2.79333 15.0933 4.17333 14.44 6.96Z" stroke="#C76CAA" stroke-width="1.5" stroke-linecap="round" stroke-linejoin="round"/>
<path d="M10.04 12.9267C9.62667 13.2067 9.10667 13.44 8.47333 13.6467L7.42 13.9933C4.77333 14.8467 3.38 14.1333 2.52 11.4867L1.66667 8.85333C0.813332 6.20666 1.52 4.80666 4.16667 3.95333L5.22 3.60666C5.49333 3.51999 5.75333 3.44666 6 3.39999C5.8 3.80666 5.64 4.29999 5.50667 4.86666L4.85333 7.65999C4.2 10.4467 5.06 11.82 7.84 12.48L8.96 12.7467C9.34667 12.84 9.70667 12.9 10.04 12.9267Z" stroke="#C76CAA" stroke-width="1.5" stroke-linecap="round" stroke-linejoin="round"/>
<path d="M8.42667 5.68668L11.66 6.50668" stroke="#C76CAA" stroke-width="1.5" stroke-linecap="round" stroke-linejoin="round"/>
<path d="M7.77333 8.26666L9.70666 8.76" stroke="#C76CAA" stroke-width="1.5" stroke-linecap="round" stroke-linejoin="round"/>
</svg>
