<svg width="17" height="16" viewBox="0 0 17 16" fill="none" xmlns="http://www.w3.org/2000/svg">
<path d="M7.33346 8.00001C7.33346 8.73638 7.93041 9.33334 8.66679 9.33334C9.40317 9.33334 10.0001 8.73638 10.0001 8.00001C10.0001 7.26363 9.40317 6.66667 8.66679 6.66667C7.93041 6.66667 7.33346 7.26363 7.33346 8.00001Z" fill="#878787"/>
<path d="M7.33346 4.00001C7.33346 4.73638 7.93041 5.33334 8.66679 5.33334C9.40317 5.33334 10.0001 4.73638 10.0001 4.00001C10.0001 3.26363 9.40317 2.66667 8.66679 2.66667C7.93041 2.66667 7.33346 3.26363 7.33346 4.00001Z" fill="#878787"/>
<path d="M7.33345 12C7.33345 12.7364 7.93041 13.3333 8.66679 13.3333C9.40317 13.3333 10.0001 12.7364 10.0001 12C10.0001 11.2636 9.40317 10.6667 8.66679 10.6667C7.93041 10.6667 7.33345 11.2636 7.33345 12Z" fill="#878787"/>
</svg>
