<svg width="16" height="16" viewBox="0 0 16 16" fill="none" xmlns="http://www.w3.org/2000/svg">
<path d="M14.0534 5.72002V10.28C14.0534 11.0267 13.6534 11.72 13.0067 12.1L9.04673 14.3867C8.40006 14.76 7.60006 14.76 6.94673 14.3867L2.98673 12.1C2.34006 11.7267 1.94006 11.0333 1.94006 10.28V5.72002C1.94006 4.97335 2.34006 4.27999 2.98673 3.89999L6.94673 1.61333C7.5934 1.23999 8.3934 1.23999 9.04673 1.61333L13.0067 3.89999C13.6534 4.27999 14.0534 4.96668 14.0534 5.72002Z" stroke="#404265" stroke-width="1.5" stroke-linecap="round" stroke-linejoin="round"/>
<path d="M8.00005 7.33333C8.85793 7.33333 9.55338 6.63787 9.55338 5.77999C9.55338 4.92211 8.85793 4.22668 8.00005 4.22668C7.14217 4.22668 6.44672 4.92211 6.44672 5.77999C6.44672 6.63787 7.14217 7.33333 8.00005 7.33333Z" stroke="#404265" stroke-width="1.5" stroke-linecap="round" stroke-linejoin="round"/>
<path d="M10.6667 11.1066C10.6667 9.90665 9.47337 8.93335 8.00004 8.93335C6.52671 8.93335 5.33337 9.90665 5.33337 11.1066" stroke="#404265" stroke-width="1.5" stroke-linecap="round" stroke-linejoin="round"/>
</svg>
