<svg width="14" height="14" viewBox="0 0 14 14" fill="none" xmlns="http://www.w3.org/2000/svg">
<path fill-rule="evenodd" clip-rule="evenodd" d="M2.75016 0.333374C1.2774 0.333374 0.0834961 1.52728 0.0834961 3.00004V11C0.0834961 12.4728 1.2774 13.6667 2.75016 13.6667H10.7502C12.2229 13.6667 13.4168 12.4728 13.4168 11V3.00004C13.4168 1.52728 12.2229 0.333374 10.7502 0.333374H2.75016ZM7.69418 3.9174C7.46442 3.76423 7.15398 3.82631 7.0008 4.05608C6.84763 4.28584 6.90972 4.59628 7.13948 4.74945L7.95717 5.29458C7.05351 5.45591 6.19156 5.77157 5.47281 6.25074C4.35757 6.99423 3.5835 8.13947 3.5835 9.66676C3.5835 9.9429 3.80735 10.1668 4.0835 10.1668C4.35964 10.1668 4.5835 9.9429 4.5835 9.66676C4.5835 8.52738 5.14275 7.67263 6.02751 7.08279C6.6917 6.64 7.53631 6.35171 8.43965 6.23115L7.66747 7.38941C7.5143 7.61917 7.57638 7.92961 7.80615 8.08279C8.03591 8.23596 8.34635 8.17388 8.49952 7.94411L9.83286 5.94411C9.98603 5.71435 9.92394 5.40391 9.69418 5.25074L7.69418 3.9174Z" fill="#C4D7DB"/>
</svg>
