<svg width="16" height="17" viewBox="0 0 16 17" fill="none" xmlns="http://www.w3.org/2000/svg">
<path d="M7.33301 1.79663H5.99967C2.66634 1.79663 1.33301 3.12996 1.33301 6.4633V10.4633C1.33301 13.7966 2.66634 15.13 5.99967 15.13H9.99967C13.333 15.13 14.6663 13.7966 14.6663 10.4633V9.12996" stroke="white" stroke-width="1.5" stroke-linecap="round" stroke-linejoin="round"/>
<path d="M10.6933 2.47664L5.43992 7.72997C5.23992 7.92997 5.03992 8.3233 4.99992 8.60997L4.71325 10.6166C4.60659 11.3433 5.11992 11.85 5.84659 11.75L7.85325 11.4633C8.13325 11.4233 8.52659 11.2233 8.73325 11.0233L13.9866 5.76997C14.8933 4.8633 15.3199 3.80997 13.9866 2.47664C12.6533 1.1433 11.5999 1.56997 10.6933 2.47664Z" stroke="white" stroke-width="1.5" stroke-miterlimit="10" stroke-linecap="round" stroke-linejoin="round"/>
<path d="M9.94043 3.22998C10.3871 4.82331 11.6338 6.06998 13.2338 6.52331" stroke="white" stroke-width="1.5" stroke-miterlimit="10" stroke-linecap="round" stroke-linejoin="round"/>
</svg>
