<svg width="16" height="17" viewBox="0 0 16 17" fill="none" xmlns="http://www.w3.org/2000/svg">
<path d="M11.9998 5.27712C11.9598 5.27046 11.9132 5.27046 11.8732 5.27712C10.9532 5.24379 10.2198 4.49045 10.2198 3.55712C10.2198 2.60379 10.9865 1.83712 11.9398 1.83712C12.8932 1.83712 13.6598 2.61045 13.6598 3.55712C13.6532 4.49045 12.9198 5.24379 11.9998 5.27712Z" stroke="#404265" stroke-width="1.5" stroke-linecap="round" stroke-linejoin="round"/>
<path d="M11.3132 10.1305C12.2265 10.2838 13.2332 10.1238 13.9398 9.65046C14.8798 9.02379 14.8798 7.99713 13.9398 7.37046C13.2265 6.89713 12.2065 6.73712 11.2932 6.89712" stroke="#404265" stroke-width="1.5" stroke-linecap="round" stroke-linejoin="round"/>
<path d="M3.97989 5.27712C4.01989 5.27046 4.06655 5.27046 4.10655 5.27712C5.02655 5.24379 5.75988 4.49045 5.75988 3.55712C5.75988 2.60379 4.99322 1.83712 4.03989 1.83712C3.08655 1.83712 2.31989 2.61045 2.31989 3.55712C2.32655 4.49045 3.05989 5.24379 3.97989 5.27712Z" stroke="#404265" stroke-width="1.5" stroke-linecap="round" stroke-linejoin="round"/>
<path d="M4.66657 10.1305C3.75323 10.2838 2.74657 10.1238 2.0399 9.65046C1.0999 9.02379 1.0999 7.99713 2.0399 7.37046C2.75323 6.89713 3.77323 6.73712 4.68656 6.89712" stroke="#404265" stroke-width="1.5" stroke-linecap="round" stroke-linejoin="round"/>
<path d="M7.99985 10.2571C7.95985 10.2505 7.91318 10.2505 7.87318 10.2571C6.95318 10.2238 6.21985 9.47045 6.21985 8.53712C6.21985 7.58378 6.98651 6.81712 7.93985 6.81712C8.89318 6.81712 9.65985 7.59045 9.65985 8.53712C9.65318 9.47045 8.91985 10.2305 7.99985 10.2571Z" stroke="#404265" stroke-width="1.5" stroke-linecap="round" stroke-linejoin="round"/>
<path d="M6.05986 12.3571C5.11986 12.9838 5.11986 14.0104 6.05986 14.6371C7.12652 15.3504 8.87319 15.3504 9.93986 14.6371C10.8799 14.0104 10.8799 12.9838 9.93986 12.3571C8.87986 11.6505 7.12652 11.6505 6.05986 12.3571Z" stroke="#404265" stroke-width="1.5" stroke-linecap="round" stroke-linejoin="round"/>
</svg>
